<svg width="74" height="73" viewBox="0 0 74 73" fill="none" xmlns="http://www.w3.org/2000/svg">
<g clip-path="url(#clip0_11_6)">
<path d="M0 26.9044C1.61051 26.4061 3.30469 26.2401 4.93612 25.8664C8.63821 25.036 12.2985 24.1641 15.7077 22.4411C19.3889 20.5935 21.8779 17.6871 23.4466 13.9504C25.2453 9.65319 26.1029 5.12761 27.0232 0.602027C27.0441 0.45671 27.0859 0.332153 27.1278 0.186836C27.1487 0.145317 27.1905 0.124557 27.3369 0C27.567 1.12102 27.7761 2.17975 27.9853 3.21773C28.7174 6.78837 29.554 10.3175 30.9135 13.7013C32.7541 18.2684 35.9542 21.4238 40.5348 23.2714C44.3624 24.8077 48.3573 25.638 52.3731 26.4477C53.0006 26.5722 53.649 26.6137 54.4019 26.9251C53.4816 27.2988 52.6241 27.3611 51.8084 27.5272C47.9808 28.316 44.1741 29.1464 40.5348 30.5996C35.9333 32.4264 32.7541 35.6026 30.9135 40.149C29.2612 44.2386 28.4036 48.515 27.5461 52.8123C27.4833 53.1237 27.4206 53.4558 27.316 53.954C26.8977 53.1859 26.8768 52.5009 26.7513 51.8781C26.0192 48.2244 25.1826 44.5915 23.9276 41.0624C21.9616 35.5611 18.1758 31.9489 12.6331 30.0806C8.51272 28.6897 4.28773 27.797 0 27.0497C0 27.0082 0 26.9666 0 26.9044Z" fill="#55C8ED"/>
<path d="M56.8909 72.1186C56.4098 71.2883 56.3053 70.3748 56.117 69.5029C55.7614 67.8629 55.3431 66.2437 54.8412 64.6452C53.5862 60.6801 50.8881 58.189 46.935 56.9434C44.7807 56.2791 42.6054 55.8224 40.4093 55.3864C40.1583 55.3449 39.9073 55.2619 39.5099 55.1581C40.2419 54.7637 40.9322 54.7221 41.5806 54.5976C43.6303 54.1824 45.68 53.7049 47.667 53.0199C51.4528 51.712 53.7535 49.0755 54.9666 45.3388C55.6569 43.1591 56.0752 40.9378 56.5562 38.7165C56.5981 38.5089 56.5772 38.2806 56.8282 38.0938C57.1837 38.7581 57.2046 39.5054 57.351 40.2112C57.7694 42.2249 58.2504 44.2178 58.9406 46.1692C60.2165 49.7399 62.7473 52.0026 66.3448 53.1859C68.6246 53.9333 70.9463 54.39 73.2889 54.8675C73.5189 54.909 73.7699 54.8882 74 55.2204C72.766 55.4695 71.5738 55.7186 70.3816 55.9677C68.6037 56.3414 66.8886 56.8396 65.1945 57.5039C61.7643 58.8533 59.7773 61.4482 58.6687 64.8113C57.9576 66.9495 57.5393 69.15 57.0791 71.3505C57.0164 71.6204 56.9536 71.8695 56.8909 72.1186Z" fill="#55C8ED"/>
</g>
<defs>
<clipPath id="clip0_11_6">
<rect width="74" height="72.1186" fill="white"/>
</clipPath>
</defs>
</svg>
